{"title":"True Romance 1993 DVDrip English Klam","uid":6208027,"size":1998258775,"categoryP":"video","categoryS":"movies","magnet":"?xt=urn:btih:66b08995641fdb739a49c3ff3f8d749b7de23cd6&amp;dn=True+Romance+1993+DVDrip+English+Klam&amp;tr=udp%3A%2F%2Ftracker.openbittorrent.com%3A80&amp;tr=udp%3A%2F%2Fopen.demonii.com%3A1337&amp;tr=udp%3A%2F%2Ftracker.coppersurfer.tk%3A6969&amp;tr=udp%3A%2F%2Fexodus.desync.com%3A6969","seeders":1,"leechers":0,"uploader":"Klambake","files":-1,"time":1298882830,"description":"With: Christian Slater, Patricia Arquette and Dennis Hopper\n\nClarence and Alabama are newlyweds who acquire an unexpected wedding present. Unknown to the blissfully happy couple, ruthless gangsters are on their tail, determined to reclaim their lost property...\n\nGeneral:\n\nComplete name                    : True Romance\\True Romance.avi\nFormat                           : AVI\nFormat/Info                      : Audio Video Interleave\nFile size                        : 1.86 GiB\nDuration                         : 1h 55mn\nOverall bit rate                 : 2 310 Kbps\n\nVideo:\n\nFormat                           : MPEG-4 Visual\nFormat profile                   : Simple@L3\nFormat settings, BVOP            : No\nFormat settings, QPel            : No\nFormat settings, GMC             : No warppoints\nFormat settings, Matrix          : Default (H.263)\nCodec ID                         : XVID\nCodec ID/Hint                    : XviD\nDuration                         : 1h 55mn\nBit rate                         : 1 851 Kbps\nWidth                            : 704 pixels\nHeight                           : 396 pixels\nDisplay aspect ratio             : 16:9\nFrame rate                       : 25.000 fps\nColor space                      : YUV\nChroma subsampling               : 4:2:0\nBit depth                        : 8 bits\nScan type                        : Progressive\nBits/(Pixel*Frame)               : 0.266\nStream size                      : 1.49 GiB (80%)\nWriting library                  : XviD 1.1.2 (UTC 2006-11-01)\n\nAudio:\n\nFormat                           : AC-3\nFormat/Info                      : Audio Coding 3\nMode extension                   : CM (complete main)\nCodec ID                         : 2000\nDuration                         : 1h 55mn\nBit rate mode                    : Constant\nBit rate                         : 448 Kbps\nChannel(s)                       : 6 channels\nChannel positions                : Front: L C R, Side: L R, LFE\nSampling rate                    : 48.0 KHz\nBit depth                        : 16 bits\nStream size                      : 370 MiB (19%)\nAlignment                        : Aligned on interleaves\nInterleave, duration             : 32 ms (0.80 video frame)\n\n\n","torrent":{"xt":"urn:btih:66b08995641fdb739a49c3ff3f8d749b7de23cd6","amp;dn":"True+Romance+1993+DVDrip+English+Klam","amp;tr":["udp%3A%2F%2Ftracker.openbittorrent.com%3A80","udp%3A%2F%2Fopen.demonii.com%3A1337","udp%3A%2F%2Ftracker.coppersurfer.tk%3A6969","udp%3A%2F%2Fexodus.desync.com%3A6969"],"infoHash":"66b08995641fdb739a49c3ff3f8d749b7de23cd6","infoHashBuffer":{"type":"Buffer","data":[102,176,137,149,100,31,219,115,154,73,195,255,63,141,116,155,125,226,60,214]},"announce":[],"urlList":[]}}